<?xml version="1.0" encoding="UTF-8"?>
<svg id="Layer_1" xmlns="http://www.w3.org/2000/svg" version="1.1" viewBox="0 0 2411.78 1989.48">
  <!-- Generator: Adobe Illustrator 30.2.0, SVG Export Plug-In . SVG Version: 2.1.1 Build 105)  -->
  <defs>
    <style>
      .st0 {
        fill: #4789bf;
      }

      .st1 {
        fill: #1e1e1e;
      }

      .st2 {
        fill: #4080b5;
      }

      .st3 {
        fill: #caffcd;
      }

      .st4 {
        fill: #ffda40;
      }

      .st5 {
        fill: #4e95d9;
      }

      .st6 {
        fill: none;
        stroke: #4080b5;
        stroke-miterlimit: 10;
        stroke-width: 84.38px;
      }
    </style>
  </defs>
  <g>
    <path class="st2" d="M1448.06,1260.61c53.19,3.65,93.44,49.59,90.06,102.79l-5.01,78.82-7.49,123.6-.34,4.79-4.12,60.27c-1.24,17.76-16.63,31.18-34.45,29.99-17.76-1.24-31.18-16.63-29.99-34.45-1.18,17.82-16.63,31.24-34.39,29.99-17.82-1.18-31.24-16.63-29.99-34.39-1.24,17.76-16.63,31.24-34.45,29.99-17.76-1.24-31.18-16.63-29.99-34.39l3.21-47.02,1.24-18.04,6.59-110.35,5.82-91.14c3.42-53.57,49.75-94.15,103.31-90.48h0Z"/>
    <path class="st2" d="M983.82,1262.57c-52.44,9.61-87.26,59.8-77.91,112.28l13.85,77.76,21.37,121.96.88,4.72,10.88,59.42c3.23,17.51,20.04,29.11,37.61,25.92,17.51-3.23,29.11-20.04,25.92-37.61,3.18,17.57,20.05,29.16,37.55,25.93,17.57-3.18,29.16-20.05,25.93-37.55,3.23,17.51,20.05,29.16,37.61,25.92,17.51-3.23,29.11-20.04,25.93-37.55l-8.49-46.36-3.27-17.79-18.98-108.9-16.05-89.9c-9.43-52.85-60.04-87.95-112.84-78.27h0Z"/>
    <path class="st6" d="M776.35,1027.74s-200.17,63.04-400.34-104.45c-200.17-167.49-163.4-551.49-163.4-551.49"/>
    <path class="st6" d="M1202.72,1192.84s238.31-229.38,602.71-44.25c364.4,185.12,433.6,496.31,433.6,496.31"/>
    <path class="st2" d="M2200.32,1634.34c-7.97,9.89-15.95,19.79-23.92,29.68-3.3,4.09-4,9.77,0,13.77,3.41,3.41,10.45,4.12,13.77,0,7.97-9.89,15.95-19.79,23.92-29.68,3.3-4.09,4-9.77,0-13.77-3.41-3.41-10.45-4.12-13.77,0h0Z"/>
    <path class="st2" d="M2203.42,1633.49c.13,18.64-2.3,36.89-7.32,54.84-3.38,12.09,15.41,17.25,18.78,5.18,5.45-19.51,8.15-39.76,8.01-60.02-.09-12.53-19.56-12.55-19.47,0h0Z"/>
    <path class="st2" d="M2221.7,1629.05c8.79,16.38,12.02,34.67,10.1,53.11-.55,5.24,4.87,9.74,9.74,9.74,5.72,0,9.19-4.48,9.74-9.74,2.27-21.77-2.43-43.7-12.75-62.94-5.93-11.05-22.74-1.22-16.81,9.83h0Z"/>
    <path class="st2" d="M2253.81,1630.77c7.52,14.44,12.52,30.27,14.33,46.47.58,5.23,4.06,9.74,9.74,9.74,4.81,0,10.32-4.48,9.74-9.74-2.21-19.81-7.77-38.6-16.99-56.3-5.79-11.12-22.6-1.28-16.81,9.83h0Z"/>
    <g>
      <path class="st0" d="M1712.57,715.06v694.22c0,57.23-39.53,105.43-93.3,119.7-10.51,2.82-21.6,4.29-33.03,4.29h-739.44c-69.74,0-126.28-55.54-126.28-123.98v-694.22c0-68.5,56.53-123.98,126.28-123.98h739.44c6.32,0,12.47.45,18.56,1.3,60.95,8.85,107.78,60.38,107.78,122.69Z"/>
      <path class="st5" d="M1634.17,715.06v694.22c0,57.23-36.4,105.43-85.93,119.7-9.68,2.82-19.89,4.29-30.42,4.29h-681.01c-64.23,0-116.3-55.54-116.3-123.98v-694.22c0-68.5,52.06-123.98,116.3-123.98h681.01c5.82,0,11.48.45,17.09,1.3,56.14,8.85,99.26,60.38,99.26,122.69Z"/>
      <circle class="st4" cx="1191.58" cy="1460.56" r="25.91"/>
      <path d="M989.91,1454.42c8.16,0,8.18-12.69,0-12.69s-8.18,12.69,0,12.69h0Z"/>
      <path d="M1043.65,1452.5c8.16,0,8.18-12.69,0-12.69s-8.18,12.69,0,12.69h0Z"/>
      <path d="M1089.71,1452.5c8.16,0,8.18-12.69,0-12.69s-8.18,12.69,0,12.69h0Z"/>
      <path d="M989.91,1491.3c8.16,0,8.18-12.69,0-12.69s-8.18,12.69,0,12.69h0Z"/>
      <path d="M1043.65,1488.97c8.16,0,8.18-12.69,0-12.69s-8.18,12.69,0,12.69h0Z"/>
      <path d="M1095.35,1487.17c8.16,0,8.18-12.69,0-12.69s-8.18,12.69,0,12.69h0Z"/>
      <path d="M1260.54,1450.58c8.16,0,8.18-12.69,0-12.69s-8.18,12.69,0,12.69h0Z"/>
      <path d="M1316.2,1454.42c8.16,0,8.18-12.69,0-12.69s-8.18,12.69,0,12.69h0Z"/>
      <path d="M1368.02,1452.5c8.16,0,8.18-12.69,0-12.69s-8.18,12.69,0,12.69h0Z"/>
      <path d="M1268.21,1496.65c8.16,0,8.18-12.69,0-12.69s-8.18,12.69,0,12.69h0Z"/>
      <path d="M1316.2,1492.81c8.16,0,8.18-12.69,0-12.69s-8.18,12.69,0,12.69h0Z"/>
      <path d="M1368.02,1496.65c8.16,0,8.18-12.69,0-12.69s-8.18,12.69,0,12.69h0Z"/>
      <path class="st5" d="M941.68,493.2h0c34.56,0,62.62,28.06,62.62,62.62v105.18h-125.24v-105.18c0-34.56,28.06-62.62,62.62-62.62Z"/>
      <path class="st5" d="M1436.16,493.2h0c34.56,0,62.62,28.06,62.62,62.62v105.18h-125.24v-105.18c0-34.56,28.06-62.62,62.62-62.62Z"/>
      <rect class="st3" x="827.24" y="703.37" width="725.52" height="680.29" rx="73.42" ry="73.42"/>
      <path class="st1" d="M1117.45,1159.84c34.11,39.69,102.93,40.11,137.59.95,5.4-6.1-3.55-15.1-8.97-8.97-30.36,34.3-89.82,33.76-119.64-.95-5.33-6.2-14.27,2.81-8.97,8.97h0Z"/>
      <path class="st1" d="M939.52,1010.6c9.96,0,19.5-8.76,19.04-19.04-.46-10.31-8.36-19.04-19.04-19.04-9.96,0-19.5,8.76-19.04,19.04.46,10.31,8.36,19.04,19.04,19.04h0Z"/>
      <path class="st1" d="M1436.16,1010.6c9.96,0,19.5-8.76,19.04-19.04-.46-10.31-8.36-19.04-19.04-19.04-9.96,0-19.5,8.76-19.04,19.04.46,10.31,8.36,19.04,19.04,19.04h0Z"/>
    </g>
    <path class="st2" d="M250.37,380.93c17.3-14.11,29.96-32.66,37.86-53.45,2.2-5.78-2.44-12.55-7.99-14.08-6.44-1.77-11.87,2.19-14.08,7.99-6.51,17.13-17.83,31.81-31.97,43.34-4.79,3.91-4.06,12.13,0,16.19,4.74,4.74,11.38,3.92,16.19,0h0Z"/>
    <path class="st2" d="M234.06,373.48c2.93-26.11,9.64-51.76,19.25-76.19,2.26-5.75-2.48-12.57-7.99-14.08-6.49-1.78-11.81,2.22-14.08,7.99-10.41,26.47-16.9,54.03-20.07,82.28-.69,6.15,5.75,11.45,11.45,11.45,6.76,0,10.75-5.28,11.45-11.45h0Z"/>
    <path class="st2" d="M213.96,371.61c-.87-27.29-.61-54.6.77-81.87.31-6.18-5.48-11.45-11.45-11.45-6.46,0-11.13,5.25-11.45,11.45-1.38,27.27-1.64,54.58-.77,81.87.47,14.69,23.36,14.76,22.89,0h0Z"/>
    <path class="st2" d="M190.93,367.71c-12.89-23.95-18.87-50.75-17.82-77.9.57-14.73-22.33-14.71-22.89,0-1.2,31.13,6.2,62.05,20.95,89.46,6.99,12.98,26.76,1.43,19.77-11.55h0Z"/>
  </g>
  <path d="M1091.15,1128.02h229.48c12.84,0,22.53,11.57,20.36,24.23-5.59,32.68-54.9,86.86-134.67,86.86s-129.52-53.95-135.5-86.66c-2.33-12.71,7.4-24.43,20.33-24.43Z"/>
</svg>