<?xml version="1.0" encoding="UTF-8"?>
<svg id="Layer_1" xmlns="http://www.w3.org/2000/svg" version="1.1" viewBox="0 0 2411.78 1989.48">
  <!-- Generator: Adobe Illustrator 30.2.0, SVG Export Plug-In . SVG Version: 2.1.1 Build 105)  -->
  <defs>
    <style>
      .st0 {
        fill: #4789bf;
      }

      .st1 {
        fill: #fff;
      }

      .st1, .st2 {
        stroke: #000;
        stroke-miterlimit: 10;
        stroke-width: 3.78px;
      }

      .st3 {
        fill: #1e1e1e;
      }

      .st4 {
        fill: #4080b5;
      }

      .st5 {
        fill: #caffcd;
      }

      .st6 {
        fill: #ffda40;
      }

      .st7 {
        fill: #4e95d9;
      }

      .st2 {
        fill: none;
      }
    </style>
  </defs>
  <path class="st4" d="M276.4,1134.51c-3.77-2.45-7.43-5.04-11-7.76,2.43,1.88,4.86,3.75,7.29,5.63-11.73-9.12-22.13-19.68-31.28-31.37,1.88,2.43,3.75,4.86,5.63,7.29-11.92-15.46-21.46-32.5-29.08-50.45l3.63,8.6c-10.59-25.33-17.31-52.06-21.04-79.22l1.29,9.57c-4.27-32.16-4.36-64.77-.17-96.94l-1.29,9.57c3.84-28.54,11.04-56.53,22.11-83.13l-3.63,8.6c9.12-21.59,20.73-42.02,35.07-60.58l-5.63,7.29c12.11-15.48,25.98-29.41,41.52-41.45l-7.29,5.63c20.57-15.7,43.42-27.85,67.2-37.93l-8.6,3.63c61.95-25.99,128.4-39.24,188.76-69.39,28.66-14.32,56.28-32.92,78.28-56.36,23.12-24.65,38.07-53.16,49.94-84.52,10.64-28.11,18.11-57.36,29.72-85.11l-3.63,8.6c5.83-13.74,12.72-27.02,21.75-38.95l-5.63,7.29c5.92-7.65,12.62-14.55,20.25-20.51l-7.29,5.63c7.17-5.46,14.92-9.9,23.2-13.45l-8.6,3.63c13.14-5.4,26.97-8.4,41.01-10.33l-9.57,1.29c31.1-4.09,62.57-4.92,93.73-8.71,34.9-4.25,69.68-9.84,103.51-19.59,58.98-17,115.42-45.98,158.96-89.87,12.27-12.36,23.33-26.08,33.18-40.43s17.69-30.59,24.6-47.1c3.34-7.98.52-20.65-3.63-27.74-4.37-7.47-12.93-14.59-21.51-16.54-9.22-2.1-19.56-1.64-27.74,3.63l-7.29,5.63c-4.46,4.49-7.55,9.79-9.26,15.89l-.59,1.41c1.21-2.87,2.42-5.73,3.63-8.6-7.36,17.21-16.98,33.26-28.41,48.07,1.88-2.43,3.75-4.86,5.63-7.29-13.46,17.21-29.15,32.45-46.39,45.85l7.29-5.63c-21.58,16.59-45.28,30.12-70.31,40.78l8.6-3.63c-41.4,17.39-85.38,27.17-129.76,33.17l9.57-1.29c-28.25,3.75-56.61,5.59-84.98,7.99-31.63,2.68-63.89,7.42-91.57,24.11-21.46,12.94-38.76,31.64-51.61,53.03-11.82,19.68-19.97,41.65-27.3,63.34-7.72,22.83-14.43,46.02-23.77,68.27l3.63-8.6c-6.56,15.43-14.47,30.11-24.66,43.46l5.63-7.29c-10.22,13.16-22.18,24.74-35.32,34.97l7.29-5.63c-21.66,16.63-45.9,29.38-70.98,40l8.6-3.63c-49.89,20.93-103,32.78-152.99,53.44-27.32,11.29-53.87,23.97-77.58,41.83-23.78,17.92-43.57,38.21-61.01,62.39-29.28,40.57-47.36,90.09-54.73,139.38-8.02,53.6-6.65,108.15,6.87,160.84,15.52,60.46,48.33,116.94,101.42,151.5,15.81,10.3,40.47,3.71,49.25-12.92,9.48-17.95,3.96-38.27-12.92-49.25h0Z"/>
  <g>
    <path class="st4" d="M813.7,1543.32c50.21-17.94,105.47,8.07,123.66,58.19l26.94,74.24,42.57,116.27,1.61,4.53,20.34,56.89c5.97,16.77-2.77,35.23-19.57,41.27-16.77,5.97-35.23-2.77-41.27-19.57,6.04,16.8-2.75,35.28-19.52,41.25-16.8,6.04-35.28-2.75-41.25-19.52,5.97,16.77-2.75,35.28-19.57,41.27-16.77,5.97-35.23-2.77-41.25-19.52l-15.86-44.38-6.08-17.03-38.1-103.77-31.12-85.85c-18.3-50.47,7.93-106.19,58.49-124.25h0Z"/>
    <path class="st4" d="M488.8,1490.17c-50.01,18.48-75.69,73.89-57.46,124l27,74.22,42,116.48,1.67,4.5,20.92,56.67c6.19,16.69,24.74,25.23,41.5,19.08,16.69-6.19,25.23-24.74,19.08-41.5,6.15,16.76,24.76,25.29,41.45,19.09,16.76-6.15,25.29-24.76,19.09-41.45,6.19,16.69,24.76,25.29,41.5,19.08,16.69-6.19,25.23-24.74,19.09-41.45l-16.33-44.21-6.27-16.96-37.4-104.02-31.25-85.81c-18.37-50.44-74.25-76.33-124.61-57.72h0Z"/>
    <path class="st0" d="M1273.19,985.05l-109.08,685.6c-8.99,56.52-55.6,97.91-110.95,103.55-10.83,1.13-22.01.84-33.3-.96l-730.26-116.18c-68.88-10.96-115.98-74.69-105.23-142.28l109.08-685.6c10.76-67.65,75.31-113.56,144.19-102.6l730.26,116.18c6.24.99,12.24,2.4,18.12,4.2,58.81,18.32,96.95,76.57,87.16,138.1Z"/>
    <path class="st7" d="M1114.46,959.79l-109.08,685.6c-8.99,56.52-49.28,98.92-96.02,105.93-9.14,1.4-18.55,1.39-28.01-.12l-611.94-97.36c-57.72-9.18-95.78-71.47-85.02-139.07l109.08-685.6c10.76-67.65,66.26-115,123.98-105.82l611.94,97.36c5.23.83,10.25,2.09,15.15,3.72,49.05,16.77,79.71,73.82,69.92,135.35Z"/>
    <circle class="st6" cx="561.21" cy="1616.53" r="25.91"/>
    <path d="M364,1578.86c8.16,0,8.18-12.69,0-12.69s-8.18,12.69,0,12.69h0Z"/>
    <path d="M417.37,1585.41c8.16,0,8.18-12.69,0-12.69s-8.18,12.69,0,12.69h0Z"/>
    <path d="M462.87,1592.65c8.16,0,8.18-12.69,0-12.69s-8.18,12.69,0,12.69h0Z"/>
    <path d="M358.2,1615.28c8.16,0,8.18-12.69,0-12.69s-8.18,12.69,0,12.69h0Z"/>
    <path d="M411.65,1621.43c8.16,0,8.18-12.69,0-12.69s-8.18,12.69,0,12.69h0Z"/>
    <path d="M462.99,1627.77c8.16,0,8.18-12.69,0-12.69s-8.18,12.69,0,12.69h0Z"/>
    <path d="M631.87,1617.59c8.16,0,8.18-12.69,0-12.69s-8.18,12.69,0,12.69h0Z"/>
    <path d="M686.24,1630.13c8.16,0,8.18-12.69,0-12.69s-8.18,12.69,0,12.69h0Z"/>
    <path d="M737.72,1636.38c8.16,0,8.18-12.69,0-12.69s-8.18,12.69,0,12.69h0Z"/>
    <path d="M632.22,1664.29c8.16,0,8.18-12.69,0-12.69s-8.18,12.69,0,12.69h0Z"/>
    <path d="M680.21,1668.04c8.16,0,8.18-12.69,0-12.69s-8.18,12.69,0,12.69h0Z"/>
    <path d="M730.78,1679.97c8.16,0,8.18-12.69,0-12.69s-8.18,12.69,0,12.69h0Z"/>
    <path class="st7" d="M528.21,642.19h0c34.56,0,62.62,28.06,62.62,62.62v105.18h-125.24v-105.18c0-34.56,28.06-62.62,62.62-62.62Z" transform="translate(120.65 -73.97) rotate(9.04)"/>
    <path class="st7" d="M965.06,707.18h0c34.56,0,62.62,28.06,62.62,62.62v105.18h-125.24v-105.18c0-34.56,28.06-62.62,62.62-62.62Z" transform="translate(136.28 -141.81) rotate(9.04)"/>
    <rect class="st5" x="311.47" y="876.79" width="660.14" height="680.29" rx="73.42" ry="73.42" transform="translate(199.17 -85.68) rotate(9.04)"/>
    <path class="st3" d="M518.21,1307.99c28,45.48,95.81,56.2,136.84,22.43,6.31-5.19-2.71-14.13-8.97-8.97-34.7,28.56-93.48,18.18-116.91-19.86-4.27-6.94-15.26-.58-10.96,6.41h0Z"/>
    <path class="st3" d="M905.95,1198.24c-4.62-13.9-14.66-26.33-29.52-29.69-14.84-3.36-29.28,2.93-39.46,13.69-5.31,5.61,3.16,14.11,8.49,8.49,7.16-7.56,17.11-12.96,27.78-10.6s17.8,11.28,21.13,21.31c2.42,7.29,14.02,4.17,11.57-3.19h0Z"/>
    <path class="st3" d="M446.8,1115.23c-3.88-11.53-12.16-21.85-24.51-24.65-12.35-2.8-24.3,2.36-32.81,11.29-5.33,5.59,3.14,14.09,8.49,8.49s12.95-9.94,21.13-8.2,13.57,8.66,16.13,16.27,14.04,4.16,11.57-3.19h0Z"/>
  </g>
  <path class="st4" d="M1136.28,1387.52c63.35-6.18,126.88-19.41,182.39-52.02,23.75-13.95,46.24-31.54,64.73-52,21.07-23.32,36.81-48.96,48.11-78.22,12.1-31.35,13.77-65.63,18.13-98.63-.52,3.85-1.04,7.71-1.55,11.56,2.49-18.46,5.87-36.84,12.95-54.15-1.46,3.46-2.92,6.93-4.39,10.39,4.09-9.65,9.27-18.65,15.67-26.94-2.27,2.93-4.53,5.87-6.8,8.8,6.84-8.67,14.75-16.29,23.46-23.05-2.93,2.27-5.87,4.53-8.8,6.8,17.36-13.24,37.07-22.8,57.09-31.28-3.46,1.46-6.93,2.92-10.39,4.39,43.28-18.21,89.4-32.09,127.32-60.68,11.87-8.95,23.39-18.21,33.83-28.81,10.41-10.58,19.64-22.23,28.46-34.16,15.79-21.36,27.53-45.38,36.49-70.34,10.76-29.97,13.31-61.63,17.45-92.99l-1.55,11.56c2.47-18.41,5.75-36.77,12.91-54.01l-4.39,10.39c3.85-8.93,8.69-17.26,14.57-25.01l-6.8,8.8c8.03-10.37,17.56-19.33,27.88-27.38l-8.8,6.8c25.27-19.47,54.18-33.33,81.16-50.18,31.52-19.69,62.97-44.77,79.13-79.2,6.65-14.17,11.6-28.69,15.74-43.74,3.24-11.75,6.46-23.48,11.18-34.74-1.46,3.46-2.92,6.93-4.39,10.39,5.61-13.04,12.82-25.23,21.47-36.48l-6.8,8.8c8.75-11.18,18.77-21.19,29.96-29.93-2.93,2.27-5.87,4.53-8.8,6.8,9.65-7.39,20-13.72,31.02-18.87,9.35-4.38,17.35-16.4,19.99-26,2.87-10.41,1.57-24.28-4.39-33.52-5.99-9.29-14.91-17.46-26-19.99l-11.56-1.55c-7.85.02-15.17,2-21.96,5.94-33.83,15.84-61.97,42.28-82.82,72.99-10.41,15.33-18.19,32.58-24.09,50.1s-9.24,35.35-16.27,52.26l4.39-10.39c-3.87,8.95-8.76,17.26-14.7,24.99l6.8-8.8c-7.8,9.93-16.98,18.54-26.91,26.3,2.93-2.27,5.87-4.53,8.8-6.8-26.91,20.77-57.97,35.11-86.42,53.53-16.19,10.48-32.18,22.17-45.58,36.1-17.57,18.26-29.96,39.22-38.31,63.09-9.51,27.18-11.14,56.64-14.9,84.98l1.55-11.56c-3.05,22.58-8.07,44.42-16.85,65.5l4.39-10.39c-7.91,18.66-18.14,36.18-30.44,52.28l6.8-8.8c-12.4,16.02-26.71,30.4-42.73,42.81,2.93-2.27,5.87-4.53,8.8-6.8-18.92,14.44-39.87,25.2-61.71,34.47,3.46-1.46,6.93-2.92,10.39-4.39-35.92,15.15-73.89,26.96-107.41,47.2-16.93,10.22-33.52,22.71-46.26,37.96-16.94,20.28-29.01,42.86-35.81,68.53-7.02,26.53-8.76,54.23-12.4,81.35l1.55-11.56c-2.65,19.31-6.49,38.3-13.93,56.39,1.46-3.46,2.92-6.93,4.39-10.39-6.32,14.99-14.61,28.96-24.46,41.89,2.27-2.93,4.53-5.87,6.8-8.8-11.92,15.4-25.83,29.03-41.22,40.94,2.93-2.27,5.87-4.53,8.8-6.8-17.82,13.61-37.33,24.59-57.93,33.42,3.46-1.46,6.93-2.92,10.39-4.39-33.48,14.11-68.99,22.32-104.91,27.18l11.56-1.55c-7.67,1.01-15.35,1.89-23.05,2.64-11.8,1.15-22.1,4.08-30.76,12.74-7.54,7.54-13.23,19.92-12.74,30.76s4.2,22.92,12.74,30.76c8.02,7.37,19.45,13.84,30.76,12.74h0Z"/>
  <g>
    <path class="st1" d="M485.88,1318.16c23.96,26.93,53.81,46.79,89.87,52.87,33.22,5.6,68.03-1.35,98.02-16.1,14.16-6.96,24.18-23.32,17.21-39.15-6.14-13.93-23.97-24.68-39.15-17.21-6.44,3.17-13.02,6.02-19.81,8.37-2.95,1.02-5.96,1.82-8.93,2.77-3.61,1.16,6.16-1.23.68-.14-1.65.33-3.29.7-4.94,1-6.15,1.13-12.39,1.84-18.64,2.05-1.62.05-3.24.04-4.86.06-3.87.06,6.93.54,1.35-.04-3.19-.33-6.37-.54-9.54-1.02-2.84-.43-5.66-.97-8.46-1.61-1.04-.24-3.6-1.48-4.65-1.17,1.65-.48,6.8,2.21,1.34.34-5.84-2-11.5-4.5-16.93-7.43-1.46-.79-2.87-1.65-4.32-2.46-3.23-1.82,5.2,3.69.72.36-2.76-2.05-5.58-3.97-8.25-6.13-2.47-1.99-4.85-4.08-7.17-6.25-1.32-1.23-2.58-2.51-3.88-3.76-4.45-4.29,3.82,4.26-.73-.85-5.49-6.17-11.27-10.76-19.72-12.1-7.32-1.17-16.59.7-22.5,5.39-11.78,9.34-17.94,29.61-6.72,42.22h0Z"/>
    <line class="st2" x1="580.64" y1="1310.43" x2="566.69" y2="1369.17"/>
    <line class="st2" x1="623.77" y1="1309.56" x2="638.79" y2="1367.86"/>
    <line class="st2" x1="649.64" y1="1299.62" x2="677.58" y2="1352.75"/>
    <line class="st2" x1="600.19" y1="1312.61" x2="602.33" y2="1372.91"/>
    <line class="st2" x1="558.44" y1="1301.73" x2="534.82" y2="1357.22"/>
    <path class="st2" d="M488.17,1280.26"/>
    <line class="st2" x1="535.55" y1="1283.49" x2="498.98" y2="1331.58"/>
  </g>
  <path class="st4" d="M1127.41,132.54c2.38-13.56,7.05-26.21,14.21-37.98,6.04-9.92-9.52-18.98-15.54-9.08-7.9,12.97-13.4,27.31-16.02,42.27-.84,4.78,1.29,9.7,6.29,11.07,4.34,1.19,10.23-1.47,11.07-6.29h0Z"/>
  <path class="st4" d="M1151.18,128.11c8.48-10.82,16.61-24.06,28.88-30.92,10.11-5.65,1.05-21.21-9.08-15.54-13.88,7.76-22.93,21.5-32.52,33.74-3,3.82-3.73,9,0,12.73,3.12,3.12,9.71,3.85,12.73,0h0Z"/>
  <path class="st4" d="M1166.67,140.29c10.3-8.81,21.83-15.94,34.13-21.62,4.41-2.04,5.51-8.41,3.23-12.31-2.65-4.53-7.88-5.27-12.31-3.23-13.73,6.33-26.28,14.61-37.77,24.43-3.7,3.16-3.25,9.48,0,12.73,3.66,3.66,9.02,3.17,12.73,0h0Z"/>
  <path class="st4" d="M1156.7,165.98c21.81-6.33,44.11-10.19,66.79-11.39,11.52-.61,11.6-18.62,0-18-24.23,1.29-48.27,5.27-71.57,12.04-11.1,3.22-6.38,20.6,4.79,17.36h0Z"/>
  <path class="st4" d="M2037.22,332.85c16.6-15.09,28.78-34.16,36.15-55.31,2.13-6.12-2.43-13.13-8.38-14.76-6.61-1.82-12.62,2.24-14.76,8.38-6.02,17.29-16.47,32.44-29.98,44.72-4.8,4.36-4.43,12.54,0,16.97,4.77,4.77,12.16,4.37,16.97,0h0Z"/>
  <path class="st4" d="M2058.76,343.72c13.28-10.58,26.55-21.16,39.83-31.74,5.07-4.04,4.22-12.75,0-16.97-5.01-5.01-11.89-4.05-16.97,0-13.28,10.58-26.55,21.16-39.83,31.74-5.07,4.04-4.22,12.75,0,16.97,5.01,5.01,11.89,4.05,16.97,0h0Z"/>
  <path class="st4" d="M2058.48,363.15c20.45-3.02,40.01-9.25,58.73-17.99,5.87-2.74,7.36-11.19,4.31-16.42-3.52-6.02-10.52-7.06-16.42-4.31-16.76,7.83-34.71,12.87-52.99,15.57-6.42.95-9.95,9.06-8.38,14.76,1.89,6.88,8.32,9.33,14.76,8.38h0Z"/>
  <path class="st4" d="M2050.36,392.52c24.74-5.72,49.82-8.92,75.2-9.64,15.41-.44,15.47-24.44,0-24-27.45.78-54.83,4.31-81.58,10.49-6.32,1.46-10.05,8.7-8.38,14.76,1.78,6.48,8.43,9.85,14.76,8.38h0Z"/>
</svg>