<?xml version="1.0" encoding="UTF-8"?>
<svg id="Layer_1" data-name="Layer 1" xmlns="http://www.w3.org/2000/svg" viewBox="0 0 423.34 272.37">
  <defs>
    <style>
      .cls-1 {
        fill: #111a1f;
      }

      .cls-2 {
        fill: #040505;
      }

      .cls-3 {
        fill: #4080b5;
      }

      .cls-4 {
        fill: #8a8d8e;
      }

      .cls-5 {
        fill: #0e1820;
      }

      .cls-6 {
        fill: #1c3142;
      }

      .cls-7 {
        fill: #4a83b3;
      }

      .cls-8 {
        fill: #091219;
      }

      .cls-9 {
        fill: #0d100e;
      }

      .cls-10 {
        fill: #020202;
      }

      .cls-11 {
        fill: #d9fedb;
      }

      .cls-12 {
        fill: #4e94d7;
      }

      .cls-13 {
        fill: #0a1015;
      }

      .cls-14 {
        fill: #10181c;
      }

      .cls-15 {
        fill: #848b92;
      }

      .cls-16 {
        fill: #060707;
      }

      .cls-17 {
        fill: #768da0;
      }

      .cls-18 {
        fill: #4983bc;
      }

      .cls-19 {
        fill: #0e171c;
      }

      .cls-20 {
        fill: #fbfefb;
      }

      .cls-21 {
        fill: #798a97;
      }

      .cls-22 {
        fill: #0a1013;
      }

      .cls-23 {
        fill: #4688c0;
      }

      .cls-24 {
        fill: #111d28;
      }

      .cls-25 {
        fill: #0b131a;
      }

      .cls-26 {
        fill: #8b8d8f;
      }

      .cls-27 {
        fill: #4882bd;
      }

      .cls-28 {
        fill: #fefefe;
      }

      .cls-29 {
        fill: #c8fecc;
      }

      .cls-30 {
        fill: #fad943;
      }
    </style>
  </defs>
  <path class="cls-12" d="M149.82,244.87c-26.51,4.45-59.86,13.04-59.85-22.34v-4.36c-1.1-11.69,4.75-16.77,7.34-25.84,13.19-34.01,8.64-21.15,15.78,6.9s99.33-4.03,125.12-1.75c13.5-1.83,35.85-1.58,32.85-21.03-5.12-38.19-10.28-76.38-15.53-114.55.65-34.56-116.54,4.29-143.12,1.58-12.65.29-13.13,11.48-19.91,18.79-10.19,6.55-7.81,21.95-14.18,28.75l-1.57,5.57c-2.85-2.04-1.83-8.51-1.98-10.76l-.04-.96c-.09-.9-.18-1.81-.27-2.73-.13-1.48-.25-2.93-.35-4.36l.05.08c-.13-.86-.26-1.72-.39-2.59-.17-1.17-.35-2.34-.52-3.51l.05.08c-.13-.84-.26-1.68-.39-2.53-.18-1.2-.35-2.39-.51-3.56l.05.08c-.1-.79-.29-2.21-.39-3-.16-1.23-.35-2.72-.51-3.96-.03-.27-.06-.53-.1-.8-.09-.53-.17-1.07-.25-1.6-.19-1.22-.36-2.43-.51-3.62-.06-.82-.13-1.65-.19-2.47-1.35-12.06,1.61-18.14,4.82-21.48,7.3-7.56,20.27-6.66,24.1-15.07.41-.9.6-1.94.53-3.18l-.02.07c-.39-11.61,12.65-21.31,22.74-13.13,7.53,4.77,4.23,18.08,15.82,14.53,21.14-2.75,42.24-5.78,63.37-8.57,7.46-.35,6.04-2.62,8.17-8.38l-.04.08c-1.34-17.39,24.57-21.64,27.64-3.58,8.08,13.87,31.6.1,36.29,32.89,6.65,51.8,14.57,103.5,20.77,155.32,1.81,25.45-26.68,33.29-46.84,31.2-32.97,2.9-65.17,11.79-98.01,13.79Z"/>
  <path class="cls-23" d="M280.57,225.04c12.69-9.03,14.42-21.49,11.85-35.77-2.16-12.01-3.34-24.19-4.98-36.3-1.51-11.12-3.07-22.24-4.59-33.35-1.34-9.71-2.65-19.42-4-29.12-1.91-13.79-4.01-27.55-5.68-41.36-.69-5.72-1.16-11.58-4.25-16.41-6.09-9.54-14.54-15.09-26.52-13.24-2.44.38-4.24.02-4.05-3.21.09-1.52-.47-3.07-.74-4.61,7.51-.99,15.02-2.01,22.54-2.97,7.82-.99,15.65-2.51,23.29,1.13,11.11,5.3,15.65,14.62,17,26.32,1.36,11.87,3.28,23.68,4.92,35.51.97,6.96,1.89,13.94,2.83,20.91-.73,2.07-2.67,2.48-4.39,3.06-4.78,1.61-9.09,4.22-13.63,6.34-2.22,1.04-3.17,2.51-2.79,5.11.68,4.65,1.05,9.35,2.09,14.42,5.11-3.16,10.14-5.82,15.32-8.16,1.86-.84,3.76-2.34,6.01-.87.89,7.26,1.71,14.52,2.68,21.77,1.01,7.52,2.17,15.03,3.24,22.54,1.39,9.74,2.96,19.47,4.06,29.25.81,7.26-1.12,14-5.85,19.7-3.4,4.09-7.51,7.22-12.5,9.32-3.74,1.57-7.21,3.78-10.8,5.71-3.3,2.41-6.28,5.67-11.05,4.29Z"/>
  <path class="cls-3" d="M310.79,112.45c-8.02,1.95-14.69,6.73-22.25,10.68-.94-6.15-1.85-12.09-2.74-18.03-.34-2.25,1.41-2.87,2.92-3.68,6.29-3.38,12.86-6.17,19.46-8.86,5.55-.82,10.83-2.77,16.45-3.48,14.13-1.8,27.97-1.09,41.43,3.72,30.37,10.86,47.93,32.69,54.74,63.86,1.8,8.23,2.79,16.46,2.47,24.85-.49,12.76-3.39,25-8.24,36.81-5.61,13.68-13.43,25.97-23.28,36.95-3.47,3.87-5.95,8.1-6.26,13.38-.1,1.73-.67,3.33-2.55,3.11-2.51-.3-2.06-2.61-1.5-4.04.74-1.87.67-3.58.29-5.76-3.18,2.01-3.14,5.58-4.54,8.25-.75,1.42-1.09,2.57-2.89,2.04-1.99-.59-1.33-1.8-.98-3.32.83-3.55,2.85-6.6,4.27-10.47-3.29,1.11-3.8,4.2-5.78,5.81-.4.33-.43,1.17-.84,1.41-1.51.88-2.17,4.28-4.49,2.42-2.07-1.66-.21-3.42,1.12-5.03,1.97-2.38,3.66-4.99,5.84-8-4.16.69-6.54,3.16-8.51,5.94-.95,1.34-1.67,2.44-3.3,1.48-1.66-.98-1-2.31-.3-3.69,1.08-2.12,2.84-3.62,4.6-5,14.53-11.4,24.36-26.25,31.56-42.97,4.73-10.99,7.44-22.57,6.82-34.56-.89-17.34-5.4-33.43-16.99-47.14-9.88-11.69-22.63-17.92-37.13-20.93-12.31-2.56-24.49-.86-36.44,2.68-1.06.31-1.99,1.05-2.98,1.58Z"/>
  <path class="cls-3" d="M78.46,201.06c-5.33,4.49-9.08,10.38-13.68,15.52-12.6,14.07-24.63,28.71-39.87,40.14-3.7,2.77-7.77,5.04-12.64,4.75-9.07-.55-14.01-8.37-11.71-18.09,3.61-15.22,11.29-28.66,18.28-42.4,5.6-10.99,13.34-20.29,22.46-28.54,11.2-10.13,23.68-18.09,37.98-23.1,1.1-.34,1.8.22,2.38,1.06,1.8,4.8,1.75,9.89,2.37,14.88.19,1.55-.48,2.71-1.76,3.55-7.38,4.35-15,8.29-21.88,13.5-12.29,9.3-20.88,21.43-27.64,35.06-1.65,3.33-3.34,6.64-5.32,10.68,14.25-15.77,28.14-30.83,40.42-47.27,3.99-5.34,8.96-6.22,15.61-3.09,1.86,1.03,4.06.73,5.98,1.53,2.55.85,5.23,1.5,7.11,3.6,1.85,2.07,2.66,4.17-.62,5.72-.28.06-.63-.22-.85-.07-.15.1.08.41.4.46.81.51,1.38,1.2,1.72,2.08.37,1.86.19,3.68-1.4,4.85-1.13.83-.97,1.83-1.03,2.9-.21,1.05-.23,2.14-.82,3.09l.03-.05c-.62.74-1.29,2.22-2.06,1.86-3.43-1.63-7.64,1.34-10.7-1.96-.75-.8-1.87-.35-2.78-.64Z"/>
  <path class="cls-4" d="M96.56,190.65c-.57-.57-1.14-1.15-1.7-1.72-.23-.18-.3-.35-.21-.51.09-.16.17-.23.25-.23,3.12-.82,3.17-2.42,1.16-4.55-1.97-2.09-4.61-2.68-7.24-3.32-1.27-2.28.23-4.14,1.05-6.02,1.95-4.45,3.86-8.92,5.95-13.29,1.4-2.93,1.08-4.64-1.72-6.72-6.77-5.04-11.7-11.65-14.6-19.66-.41-1.32-.44-2.71-.83-4.04-1.3-4.57-1.83-9.24-1.93-13.98-.56-1.98-.15-3.58.06-5.92,1.97-13.56,8.76-24.39,18.92-33.3,5.94-5.93,13.49-8.75,21.47-9.72,13.65-1.66,26.49.81,37.55,9.75,12.2,9.85,18.55,22.42,18.68,38.24.15,18.73-8.2,32.68-23.65,42.51-9.88,6.29-20.96,8.34-32.52,6.48-3.73-.6-5.71.23-6.79,3.76-.5,1.61-1.1,3.28-2.74,4.21-3.87,6.54-6.35,13.72-9.53,20.58-2.19.22-.52-2.06-1.64-2.53Z"/>
  <path class="cls-3" d="M280.57,225.04c4.19-.12,7.1-3.55,11.05-4.29-.53,9.33-.9,18.68-1.69,28-.27,3.15-2.63,5.15-5.84,5.95-3.02.75-5.17-.64-6.99-2.73-.99-1.13-1.29-2.73-3.37-.84-4.67,4.25-9.22,3.23-12.43-2.66-2.43,1.59-3.88,4.73-7.67,4.19-3.9-.55-6.5-2.72-6.52-6.75-.02-4.96-.23-9.93.75-14.84,8.37-1.16,16.76-2.2,25.1-3.55,2.61-.42,5.09-1.64,7.63-2.49Z"/>
  <path class="cls-3" d="M149.82,244.87c3.78-1.9,7.97-1.55,11.98-2.11,10.37-1.44,20.69-3.39,31.17-3.92-.5,4.45,1.06,8.71,1.95,12.88.97,4.49-.28,7.21-3.64,9.36-3.61,2.3-6.44.4-8.94-2.29-.28-.3-.69-.47-1.05-.72-2.73,7.51-7.34,8.61-13.92,3.25-2.17,3.18-4.34,6.69-8.95,5.72-4.63-.97-5.76-4.94-6.51-8.85-.85-4.41-1.4-8.88-2.09-13.32Z"/>
  <path class="cls-23" d="M210.02,15.17c.02.71-.01,1.43.06,2.14.66,6.35.68,6.46-5.62,7.3-17.83,2.38-35.67,4.65-53.5,7.01-5.9.78-11.8,1.54-17.65,2.6-3.93.71-4.98-1.16-4.93-4.51.02-1.14.03-2.28.04-3.43,8.03-.14,15.87-1.9,23.81-2.8,7.38-.83,14.72-2.04,22.08-3.07,9.72-1.35,19.46-2.6,29.15-4.09,2.18-.34,4.61.57,6.55-1.14Z"/>
  <path class="cls-26" d="M78.46,201.06c.41-.39,1.08-1.17,1.18-1.11,3.15,2.12,6.62,2.23,10.28,2.49,1.63.12,2.8.23,4.09-.64-1.67,4.01-3.35,8.01-5.02,12.02-2.62,5.78-5.38,11.51-7.8,17.38-1.37,3.31-3.4,4.19-6.59,2.98-.39-.15-.74-.42-1.13-.6-7.1-3.29-7.28-4-3.86-11.18,2.97-6.24,5.76-12.56,8.56-18.88.32-.73.21-1.64.31-2.47Z"/>
  <path class="cls-23" d="M99.93,30.65c1.4,1.85.69,4.15,1.31,6.19.17.57.13.93-.03,1.16-.48.68-1.78.6-2.12.58-.4-.02-3,1.16-8.69,2.85-2.16.64-6.9,2.03-15.09,7.47,5.5-6.64,12.79-13.07,22.36-17.3.76-.34,1.52-.65,2.28-.95Z"/>
  <path class="cls-18" d="M81.07,150.24c-.59-.3-1.19-.6-1.78-.91,1.61-2.09.74-4.5.88-6.79.25-.02.51-.04.76-.06,1.96,2.55,1.85,5.14.14,7.76Z"/>
  <path class="cls-27" d="M210.89,9.14c-.32,2.03.9,4.29-.91,6.1.53-2-.77-4.27.91-6.1Z"/>
  <path class="cls-29" d="M107.72,172.6c.14-.55.19-1.14.42-1.65,1.16-2.61,1.81-5.77,3.72-7.63,2.08-2.01,5.05.4,7.66.62,25.87,2.16,48.54-14.75,52.45-40.32,4.76-31.23-19.45-55.03-45.94-55.27-10.08-.09-19.21,2.3-27.6,7.78-.82.54-1.8.84-2.7,1.26.97-8.36,6.51-13.77,14.65-14.86,26.62-3.56,53.22-7.28,79.84-10.91,15.43-2.1,30.85-4.3,46.31-6.19,12.46-1.52,18.76,4.34,20.71,18.8,4.67,34.69,9.31,69.39,13.97,104.08.38,2.83.7,5.67,1.16,8.49,1.48,9.06-4.23,17.61-13.21,18.96-16.39,2.47-32.82,4.63-49.24,6.88-16,2.19-32,4.33-48,6.49-11.04,1.5-22.07,3.15-33.13,4.47-7.52.89-15.45-5.35-16.73-13.09-1.31-7.89-2.31-15.83-3.39-23.76-.19-1.42-.18-2.86-.92-4.15Z"/>
  <path class="cls-30" d="M202.57,221.99c-.15,3.21-2.77,5.66-5.87,5.49-3.05-.17-5.57-2.89-5.53-5.95.05-3.24,2.98-5.92,6.18-5.67,3.16.25,5.37,2.85,5.21,6.13Z"/>
  <path class="cls-15" d="M96.56,190.65c.55.84,1.09,1.69,1.64,2.53-.86,2.01-1.71,4.01-2.57,6.02-.93.51-1.17-.31-1.57-.82.21-.84-1.2-2.09.31-2.52,3.05-.87,2.02-3.25,2.2-5.22Z"/>
  <path class="cls-6" d="M175.39,221.43c-.06.78-.49,1.41-1.2,1.5-.91.12-1.62-.39-1.75-1.36-.1-.82.52-1.39,1.17-1.48.88-.13,1.58.36,1.78,1.34Z"/>
  <path class="cls-24" d="M223.96,213.87c.94.01,1.53.49,1.56,1.25.03.78-.6,1.3-1.39,1.29-.6,0-1.07-.37-1.16-1.04-.12-.86.32-1.31,1-1.51Z"/>
  <path class="cls-1" d="M176.06,230.25c-.76-.16-1.22-.6-1.11-1.41.11-.78.64-1.19,1.42-1.14.84.05,1.17.64,1.08,1.4-.09.78-.57,1.2-1.39,1.15Z"/>
  <path class="cls-19" d="M153.12,231.89c.81.14,1.18.66,1.11,1.43-.08.81-.59,1.21-1.4,1.11-.8-.09-1.23-.59-1.13-1.39.1-.79.64-1.15,1.43-1.15Z"/>
  <path class="cls-5" d="M235.42,211.99c.83-.05,1.45.3,1.36,1.15-.05.45-.49,1.05-.91,1.22-.75.31-1.38-.11-1.57-.92-.21-.88.37-1.25,1.11-1.45Z"/>
  <path class="cls-9" d="M165.02,222.74c-.06.79-.39,1.35-1.24,1.43-.66.06-1.09-.33-1.27-.92-.26-.85.2-1.41.95-1.6.82-.2,1.32.32,1.56,1.09Z"/>
  <path class="cls-25" d="M213.04,215.88c-.09.73-.34,1.34-1.19,1.39-.81.05-1.37-.41-1.44-1.16-.07-.74.42-1.28,1.2-1.39.86-.12,1.21.45,1.42,1.16Z"/>
  <path class="cls-14" d="M216.11,226.21c.02.58-.57,1.05-1.25,1.11-.74.06-1.27-.48-1.33-1.28-.06-.85.52-1.35,1.22-1.4.74-.05,1.26.48,1.36,1.58Z"/>
  <path class="cls-13" d="M226.52,223.56c-.06.78-.35,1.45-1.23,1.37-.76-.07-1.28-.62-1.27-1.43,0-.67.51-.96,1.11-1.06.87-.14,1.33.26,1.39,1.12Z"/>
  <path class="cls-22" d="M151.83,226.13c-.8-.12-1.29-.58-1.02-1.37.15-.44.66-1,1.07-1.05.73-.08,1.28.51,1.31,1.24.04.83-.63,1.1-1.36,1.17Z"/>
  <path class="cls-22" d="M165.07,229.69c.7.28,1.16.77.98,1.54-.18.8-.83.99-1.56.8-.6-.15-.92-.6-.81-1.19.13-.72.59-1.17,1.39-1.15Z"/>
  <path class="cls-8" d="M237.75,223c-.19.43-.2,1.13-.95,1.09-.91-.05-1.11-.71-1.01-1.48.09-.67.58-.99,1.19-.91.67.08.83.63.77,1.3Z"/>
  <path class="cls-17" d="M94.05,198.38c.52.27,1.05.54,1.57.82-.43.96-.64,2.06-1.66,2.65.03-1.15.06-2.31.09-3.47Z"/>
  <path class="cls-28" d="M82.82,178.66c-6.92-3.01-10.3-1.74-14.81,4.11-6.57,8.52-13.5,16.79-20.51,24.95-5.75,6.69-11.83,13.1-17.82,19.58-.94,1.01-1.72,2.32-3.27,2.63-.5-.85-.38-1.64.03-2.45,7.37-14.27,13.84-29.08,26.25-40.13,6.6-5.88,13.67-10.97,21.36-15.28,2.33-1.31,4.7-2.56,7.05-3.84.79-.46,1.69-.56,2.4-.08,1.98,1.34,2.59,8.87.88,10.54-.42.41-1.04.27-1.56-.03Z"/>
  <path class="cls-12" d="M82.82,178.66c.7-.03,1.7-.05,1.64-.87-.23-3.02-.55-6.06-1.1-9.04-.16-.85-1.46-.45-2.26-.51,3.37-1.64,1.6-4.53,1.46-6.84-.23-3.74-.97-7.44-1.5-11.16-.34-2.58-.8-4.59-.82-7.76-.37-1.99-.19-1.08-.37-1.99,0-.93-1.84-7.79-.88-8.43,3.55,8.63,10.03,17.78,17.87,22.93,2.06,1.35,1.62,2.35.91,4.12-2.84,7.13-6.79,13.79-8.97,21.2-1.74-1.49-4.3.01-5.99-1.65Z"/>
  <path class="cls-15" d="M88.88,198.16c-1.85-1.12-4.12,1.48-5.05-1.66-.27-.89.24-1.89,1.09-2.02,2.24-.34,3.18,1.17,3.96,3.68Z"/>
  <path class="cls-21" d="M92.59,194.35c-2.22-1.86-3.55-2.97-5.23-4.39,2.94-.19,4.07,1.18,5.23,4.39Z"/>
  <path class="cls-7" d="M94.89,188.18c0,.25-.02.5-.04.74-.82-.1-1.62-.24-1.62-1.32,0-.22.18-.62.3-.63.83-.07,1.05.62,1.36,1.2Z"/>
  <path class="cls-29" d="M93.22,89.2c.25-.27.5-.55.75-.82,1.02-.63,1.72-1.53,2.25-2.58,11.97-12.81,34.47-15.27,50.27-5.48,16.78,10.4,24.2,30.8,17.91,49.29-6.28,18.47-24.66,30.24-44.2,28.31-28.86-2.86-46.23-35.06-32.75-60.75.86-1.63,2.01-3.1,3.03-4.64,1.01-1.02,1.81-2.22,2.74-3.3Z"/>
  <path class="cls-2" d="M186.65,161c-2.81-.22-5.26-1.41-5.58-4.94-.25-2.79,2.76-5.52,5.94-5.63,3.07-.1,5.86,2.26,5.93,5.01.08,2.95-2.62,5.47-6.29,5.55Z"/>
  <path class="cls-16" d="M241.33,110.07c-.17,2.99-1.64,4.79-4.49,4.8-2.83,0-4.48-1.75-4.5-4.61-.02-2.72,1.72-4.31,4.23-4.46,2.81-.16,4.39,1.59,4.75,4.26Z"/>
  <path class="cls-28" d="M161.92,114.86c-.3,14.94-6.32,26.64-19.44,34.32-.86.5-1.78.92-2.68,1.35-1.54.73-3.17,1.03-4.13-.72-1.04-1.89-.09-3.13,1.72-4.1,5.73-3.06,10.65-6.96,14.25-12.58,6.42-10.06,7.22-29.68-2.16-38.72-1.53-1.47-1.77-2.98,0-4.33,2.09-1.59,3.54.11,4.72,1.41,5.1,5.64,7.03,12.57,7.72,19.94.11,1.13.01,2.29.01,3.43Z"/>
  <path class="cls-10" d="M126.39,115.78c4.73.03,8.33,3.81,8.2,8.61-.13,4.74-3.99,8.48-8.59,8.31-4.77-.17-8.29-3.89-8.21-8.68.08-4.78,3.72-8.27,8.6-8.23Z"/>
  <path class="cls-11" d="M107.22,149.66c-11.15-4.57-18.24-13.05-19.79-24.62-2.07-15.33,1.61-29.45,14.66-39.39,10.26-7.81,21.63-10.73,34.26-5.72-22.74-3.73-39.25,4.32-46.03,26.67-5.44,17.93.36,32.89,16.91,43.06Z"/>
  <path class="cls-20" d="M130.1,152.04c-.11,1.41-.71,2.48-2.35,2.34-1.38-.12-1.92-1.14-1.9-2.42.02-1.5.73-2.53,2.34-2.4,1.37.11,1.89,1.12,1.92,2.47Z"/>
</svg>