<?xml version="1.0" encoding="UTF-8"?>
<svg id="Layer_1" xmlns="http://www.w3.org/2000/svg" version="1.1" viewBox="0 0 2411.78 1989.48">
  <!-- Generator: Adobe Illustrator 30.2.0, SVG Export Plug-In . SVG Version: 2.1.1 Build 105)  -->
  <defs>
    <style>
      .st0 {
        fill: #4789bf;
      }

      .st1 {
        fill: #1e1e1e;
      }

      .st2 {
        fill: #4080b5;
      }

      .st3 {
        fill: #37729b;
      }

      .st4 {
        fill: #1e445b;
      }

      .st5 {
        fill: #caffcd;
      }

      .st6 {
        fill: #ffda40;
      }

      .st7 {
        fill: #4e95d9;
      }

      .st8 {
        fill: none;
        stroke: #4080b5;
        stroke-miterlimit: 10;
        stroke-width: 84.38px;
      }
    </style>
  </defs>
  <path class="st8" d="M828.42,859.27s-174.31,223.32-318.59,333.4-235.78,78.41-168.92-502.25"/>
  <path class="st3" d="M2124.53,1444.52c-66.61,4.05-153.89-9.89-263.31-41.86-128.43-37.52-238.94-86.16-243.58-88.22l34.12-77.17c1.09.48,110.71,48.7,233.91,84.62,70.99,20.7,132.32,33.28,182.28,37.4,53.85,4.43,94.68-1.42,114.95-16.49,5.95-4.42,21.75-16.16,16.55-58.15-3.34-26.96-12.7-51.49-28.63-74.97-15-22.12-35.98-43.13-62.35-62.42-47.09-34.46-111.36-63.82-191.02-87.25-139.54-41.04-277.68-49.04-279.06-49.12l4.6-84.26c5.98.32,148.08,8.46,296.88,52.01,89.35,26.15,162.65,59.83,217.85,100.09,73.86,53.87,116.08,119.67,125.47,195.56,9.29,75.04-22.06,115.52-49.99,136.26-26.73,19.85-62.8,31.18-108.68,33.97Z"/>
  <g>
    <path class="st2" d="M1408.47,1152.6c51.96,11.96,84.49,63.65,72.79,115.67l-17.33,77.06-26.82,120.88-1.09,4.68-13.53,58.88c-4.02,17.34-21.32,28.18-38.73,24.21-17.34-4.02-28.18-21.32-24.21-38.73-3.97,17.41-21.33,28.23-38.68,24.22-17.41-3.97-28.23-21.33-24.22-38.68-4.02,17.34-21.33,28.23-38.73,24.21-17.34-4.02-28.18-21.32-24.22-38.68l10.56-45.93,4.06-17.62,23.85-107.94,20.07-89.09c11.8-52.37,63.93-85.16,116.24-73.12h0Z"/>
    <path class="st2" d="M949.68,1081.59c-53.3,1.26-95.57,45.34-94.58,98.65l1.46,78.97,1.94,123.81.12,4.8,1.41,60.4c.44,17.8,15.22,31.89,33.07,31.51,17.8-.44,31.89-15.22,31.51-33.07.38,17.85,15.21,31.95,33.01,31.51,17.85-.38,31.95-15.21,31.51-33.01.44,17.8,15.21,31.95,33.07,31.51,17.8-.44,31.89-15.22,31.51-33.01l-1.1-47.12-.43-18.08-1.63-110.53-1.72-91.31c-1.01-53.67-45.48-96.29-99.14-95.02h0Z"/>
    <g>
      <path class="st0" d="M1755.4,655.38l-109.08,685.6c-8.99,56.52-55.6,97.91-110.95,103.55-10.83,1.13-22.01.84-33.3-.96l-730.26-116.18c-68.88-10.96-115.98-74.69-105.23-142.28l109.08-685.6c10.76-67.65,75.31-113.56,144.19-102.6l730.26,116.18c6.24.99,12.24,2.4,18.12,4.2,58.81,18.32,96.95,76.57,87.16,138.1Z"/>
      <path class="st7" d="M1677.98,643.06l-109.08,685.6c-8.99,56.52-52.52,98.4-103.67,104.71-10,1.26-20.32,1.11-30.72-.55l-672.55-107c-63.44-10.09-106.13-73.12-95.37-140.72l109.08-685.6c10.76-67.65,70.9-114.26,134.33-104.17l672.55,107c5.75.91,11.27,2.25,16.67,3.97,54.05,17.56,88.54,75.23,78.75,136.76Z"/>
      <circle class="st6" cx="1123.76" cy="1309.76" r="25.91"/>
      <path d="M926.55,1272.09c8.16,0,8.18-12.69,0-12.69s-8.18,12.69,0,12.69h0Z"/>
      <path d="M979.93,1278.64c8.16,0,8.18-12.69,0-12.69s-8.18,12.69,0,12.69h0Z"/>
      <path d="M1025.42,1285.88c8.16,0,8.18-12.69,0-12.69s-8.18,12.69,0,12.69h0Z"/>
      <path d="M920.75,1308.51c8.16,0,8.18-12.69,0-12.69s-8.18,12.69,0,12.69h0Z"/>
      <path d="M974.2,1314.66c8.16,0,8.18-12.69,0-12.69s-8.18,12.69,0,12.69h0Z"/>
      <path d="M1025.54,1321c8.16,0,8.18-12.69,0-12.69s-8.18,12.69,0,12.69h0Z"/>
      <path d="M1194.42,1310.82c8.16,0,8.18-12.69,0-12.69s-8.18,12.69,0,12.69h0Z"/>
      <path d="M1248.79,1323.36c8.16,0,8.18-12.69,0-12.69s-8.18,12.69,0,12.69h0Z"/>
      <path d="M1300.27,1329.61c8.16,0,8.18-12.69,0-12.69s-8.18,12.69,0,12.69h0Z"/>
      <path d="M1194.77,1357.52c8.16,0,8.18-12.69,0-12.69s-8.18,12.69,0,12.69h0Z"/>
      <path d="M1242.76,1361.27c8.16,0,8.18-12.69,0-12.69s-8.18,12.69,0,12.69h0Z"/>
      <path d="M1293.33,1373.2c8.16,0,8.18-12.69,0-12.69s-8.18,12.69,0,12.69h0Z"/>
      <path class="st7" d="M1015.77,314.11h0c34.56,0,62.62,28.06,62.62,62.62v105.18h-125.24v-105.18c0-34.56,28.06-62.62,62.62-62.62Z" transform="translate(75.15 -154.66) rotate(9.04)"/>
      <path class="st7" d="M1504.11,391.8h0c34.56,0,62.62,28.06,62.62,62.62v105.18h-125.24v-105.18c0-34.56,28.06-62.62,62.62-62.62Z" transform="translate(93.42 -230.42) rotate(9.04)"/>
      <rect class="st5" x="824.96" y="557.5" width="725.52" height="680.29" rx="73.42" ry="73.42" transform="translate(155.79 -175.47) rotate(9.04)"/>
      <path class="st1" d="M1097.45,1000.6c28,45.48,95.81,56.2,136.84,22.43,6.31-5.19-2.71-14.13-8.97-8.97-34.7,28.56-93.48,18.18-116.91-19.86-4.27-6.94-15.26-.58-10.96,6.41h0Z"/>
      <path class="st1" d="M948.52,826.02c9.96,0,19.5-8.76,19.04-19.04-.46-10.31-8.36-19.04-19.04-19.04-9.96,0-19.5,8.76-19.04,19.04.46,10.31,8.36,19.04,19.04,19.04h0Z"/>
      <path class="st1" d="M1438.99,904.05c9.96,0,19.5-8.76,19.04-19.04-.46-10.31-8.36-19.04-19.04-19.04-9.96,0-19.5,8.76-19.04,19.04.46,10.31,8.36,19.04,19.04,19.04h0Z"/>
    </g>
  </g>
  <path class="st3" d="M1939.88,978.65c89.35,26.15,162.65,59.83,217.85,100.09,73.86,53.87,116.08,119.67,125.47,195.56,9.29,75.04-22.06,115.52-49.99,136.26-26.73,19.85-62.8,31.18-108.68,33.97-66.61,4.05-153.89-9.89-263.31-41.86-128.43-37.52-238.94-86.16-243.58-88.22l34.12-77.17c1.09.48,110.71,48.7,233.91,84.62,70.99,20.7,132.32,33.28,182.28,37.4,53.85,4.43,94.68-1.42,114.95-16.49,5.95-4.42,21.75-16.16,16.55-58.15-3.34-26.96-12.7-51.49-28.63-74.97-15-22.12-35.98-43.13-62.35-62.42-47.09-34.46-111.36-63.82-191.02-87.25"/>
  <path class="st3" d="M1621.38,1312.1c-3.64,3.5-8.95,4.52-13.97,5.05-6.57.68-13.21.77-19.8.25-4.03-.31-8.16-.89-11.65-2.93s-6.2-5.86-5.84-9.88c.19-2.11,1.19-4.08,2.47-5.77,3.79-5.02,9.97-7.82,16.19-8.76s12.57-.2,18.8.7c-4.16-.63-8.38-1.27-12.24-2.93s-7.42-4.46-9.07-8.33c-3.34-7.83,2.57-17.23,10.5-20.32s16.91-1.38,24.96,1.36c-5.79-.77-11.02-4.17-14.8-8.62s-6.23-9.89-7.97-15.47c-.51-1.63-.96-3.38-.5-5.03.43-1.53,1.6-2.72,2.73-3.83,2.81-2.75,5.84-5.46,9.55-6.76,5.24-1.85,11.18-.59,16.04,2.09,4.87,2.69,8.86,6.67,12.78,10.62-2.09-.81-2.74-3.43-2.85-5.67-.3-5.86,1.07-11.79,3.91-16.92,1.79-3.24,4.74-6.45,8.44-6.31,2.93.11,5.37,2.33,6.94,4.8,3.89,6.11,3.92,13.94,2.53,21.04-1.39,7.11-4.06,13.93-5.2,21.08"/>
  <path class="st2" d="M301.08,740.58s7.58-38.14-15.25-60.61c-22.82-22.47-49.3-13.57-57.86-24.27s-9.63-24.61,2.5-32.1,23.18-5.71,23.18-5.71c0,0-27.46-3.92-28.17-19.97s16.05-23.54,26.39-21.4,14.27,2.14,14.27,2.14c0,0-22.47-.71-26.75-19.26s11.41-19.97,34.24-17.48c22.82,2.5,51.71,15.34,63.84,27.82,12.13,12.48,15.92-14.95,10.93-35.63-4.99-20.68-5.07-43.3,11.34-42.23,16.41,1.07,26.59,9.38,30.87,49.33,3.15,29.42-.71,131.6-13.91,200.79-13.2,69.19-75.61-1.43-75.61-1.43Z"/>
  <path class="st4" d="M246.75,653.64c9.71.38,19.13,2.87,28.59,4.88,4.63.98,9.29,1.84,14,2.31,3.7.37,7.06.51,10.53-.99,3.23-1.39,5.63-3.76,6.32-7.27.63-3.22.52-6.94-.67-10.03-1.32-3.4-4.08-6.3-6.84-8.6-3.05-2.54-6.45-4.63-9.96-6.47-4.39-2.3-8.93-4.3-13.71-5.63-5.24-1.46-10.66-2.22-16.07-2.65-1.69-.13-2.04,2.57-.4,2.95,8.52,1.94,17.22,3.06,25.96,3.28,7.63.19,16.24.13,22.69-4.55,2.75-2,4.98-4.64,6.13-7.86,1.22-3.44.82-7.21-.59-10.52-3.09-7.25-10.16-11.18-16.88-14.53-8.3-4.13-16.84-8.11-26.2-8.86-1.69-.13-2.04,2.57-.4,2.95,7.64,1.74,15.39,3.01,23.19,3.8,6.65.67,14.55,1.86,20.44-2.15,2.49-1.7,4.41-4.17,4.95-7.18.6-3.35-.32-6.72-1.79-9.72-2.72-5.54-7.6-9.83-12.96-12.75-7.26-3.95-15.49-5.5-23.53-6.99-1.89-.35-2.7,2.54-.8,2.89,11.76,2.17,25.47,4.75,32.84,15.24,3.21,4.57,5.44,11.4.33,15.5s-12.58,2.82-18.53,2.25c-7.86-.75-15.65-2.03-23.35-3.79l-.4,2.95c7.64.61,14.81,3.64,21.63,6.95,6.09,2.95,13.18,5.94,17.12,11.75,1.87,2.75,3.09,6.12,2.54,9.48-.49,3.03-2.35,5.64-4.69,7.56-5.53,4.53-13.26,4.7-20.06,4.62-9.04-.11-18.04-1.19-26.85-3.2l-.4,2.95c8.79.69,17.3,2.53,25.28,6.37,6.34,3.05,13.32,6.8,17.31,12.83,1.72,2.61,2.18,5.61,1.99,8.7-.08,1.33-.29,2.81-.97,3.98-.77,1.32-2.19,2.24-3.54,2.88-3.06,1.46-6.14,1.21-9.43.89-4.44-.43-8.84-1.25-13.2-2.18-9.8-2.07-19.55-4.64-29.62-5.03-1.93-.08-1.93,2.92,0,3h0Z"/>
</svg>